{
  "accessors": [
    {
      "bufferView": 1,
      "componentType": 5126,
      "count": 52818,
      "max": [
        31.59160614013672,
        0.10890532284975052,
        53.77184295654297
      ],
      "min": [
        -22.13022232055664,
        -103.93902587890625,
        1.620807409286499
      ],
      "type": "VEC3"
    },
    {
      "bufferView": 1,
      "byteOffset": 633816,
      "componentType": 5126,
      "count": 52818,
      "max": [
        1.0,
        1.0,
        1.0
      ],
      "min": [
        -1.0,
        -1.0,
        -1.0
      ],
      "type": "VEC3"
    },
    {
      "bufferView": 0,
      "componentType": 5125,
      "count": 264696,
      "type": "SCALAR"
    }
  ],
  "asset": {
    "extras": {
      "author": "Masterclip 3D (https://sketchfab.com/masterclip)",
      "license": "CC-BY-NC-4.0 (http://creativecommons.org/licenses/by-nc/4.0/)",
      "source": "https://sketchfab.com/3d-models/black-panther-inspirited-free-bust-b2ec5554fd194d34ac3b0ef9114ee208",
      "title": "BLACK PANTHER INSPIRITED FREE BUST"
    },
    "generator": "Sketchfab-12.68.0",
    "version": "2.0"
  },
  "bufferViews": [
    {
      "buffer": 0,
      "byteLength": 1058784,
      "name": "floatBufferViews",
      "target": 34963
    },
    {
      "buffer": 0,
      "byteLength": 1267632,
      "byteOffset": 1058784,
      "byteStride": 12,
      "name": "floatBufferViews",
      "target": 34962
    }
  ],
  "buffers": [
    {
      "byteLength": 2326416,
      "uri": "scene.bin"
    }
  ],
  "materials": [
    {
      "doubleSided": true,
      "name": "material_0",
      "pbrMetallicRoughness": {
        "baseColorFactor": [
          0.0528656762,
          0.0532181869,
          0.0611686772,
          1.0
        ],
        "metallicFactor": 0.7517708778,
        "roughnessFactor": 0.1830208778
      }
    }
  ],
  "meshes": [
    {
      "name": "Object_0",
      "primitives": [
        {
          "attributes": {
            "NORMAL": 1,
            "POSITION": 0
          },
          "indices": 2,
          "material": 0,
          "mode": 4
        }
      ]
    }
  ],
  "nodes": [
    {
      "children": [
        1
      ],
      "matrix": [
        1.0,
        0.0,
        0.0,
        0.0,
        0.0,
        -1.0,
        -2.220446049250313e-16,
        0.0,
        0.0,
        2.220446049250313e-16,
        -1.0,
        0.0,
        0.0,
        -24.218624114990252,
        79.61128997802734,
        1.0
      ],
      "name": "Sketchfab_model"
    },
    {
      "children": [
        2
      ],
      "name": "BLACK_PANTHER_BUST_001.obj.cleaner.materialmerger.gles"
    },
    {
      "mesh": 0,
      "name": "Object_2"
    }
  ],
  "scene": 0,
  "scenes": [
    {
      "name": "Sketchfab_Scene",
      "nodes": [
        0
      ]
    }
  ]
}
